HIERARCHY
ROOT WRIST
{
	OFFSET 0.000000 0.000000 0.000000
	CHANNELS 6 Xposition Yposition Zposition Yrotation Xrotation Zrotation
	JOINT THUMB_CMC_FE
	{
		OFFSET -0.225143 0.117753 -0.062308
		CHANNELS 3 Yrotation Xrotation Zrotation
		JOINT THUMB_CMC_AA
		{
			OFFSET -0.212856 -0.150507 0.098851
			CHANNELS 3 Yrotation Xrotation Zrotation
			JOINT THUMB_MCP_FE
			{
				OFFSET 0.322503 -0.167445 -0.031436
				CHANNELS 3 Yrotation Xrotation Zrotation
				JOINT THUMB_IP_FE
				{
					OFFSET -0.295233 -0.236404 0.025845
					CHANNELS 3 Yrotation Xrotation Zrotation
					End Site
					{
						OFFSET 0.000000 0.000000 0.000000
					}
				}
			}
		}
	}
	JOINT INDEX_MCP
	{
		OFFSET -1.076913 0.264198 -0.014768
		CHANNELS 3 Yrotation Xrotation Zrotation
		JOINT INDEX_PIP_FE
		{
			OFFSET -0.425053 0.013289 0.013619
			CHANNELS 3 Yrotation Xrotation Zrotation
			JOINT INDEX_DIP_FE
			{
				OFFSET -0.271505 -0.024898 0.000550
				CHANNELS 3 Yrotation Xrotation Zrotation
				End Site
				{
					OFFSET 0.000000 0.000000 0.000000
				}
			}
		}
	}
	JOINT MIDDLE_MCP
	{
		OFFSET -1.072991 0.019362 0.038780
		CHANNELS 3 Yrotation Xrotation Zrotation
		JOINT MIDDLE_PIP_FE
		{
			OFFSET -0.480704 0.002618 0.028696
			CHANNELS 3 Yrotation Xrotation Zrotation
			JOINT MIDDLE_DIP_FE
			{
				OFFSET -0.307486 -0.031129 -0.000643
				CHANNELS 3 Yrotation Xrotation Zrotation
				End Site
				{
					OFFSET 0.000000 0.000000 0.000000
				}
			}
		}
	}
	JOINT RING_MCP
	{
		OFFSET -0.994992 -0.195930 -0.005938
		CHANNELS 3 Yrotation Xrotation Zrotation
		JOINT RING_PIP_FE
		{
			OFFSET -0.436995 0.003792 0.019994
			CHANNELS 3 Yrotation Xrotation Zrotation
			JOINT RING_DIP_FE
			{
				OFFSET -0.295558 -0.038341 -0.006642
				CHANNELS 3 Yrotation Xrotation Zrotation
				End Site
				{
					OFFSET 0.000000 0.000000 0.000000
				}
			}
		}
	}
	JOINT PINKY_MCP
	{
		OFFSET -0.873858 -0.393246 -0.086282
		CHANNELS 3 Yrotation Xrotation Zrotation
		JOINT PINKY_PIP_FE
		{
			OFFSET -0.343972 -0.016492 0.013445
			CHANNELS 3 Yrotation Xrotation Zrotation
			JOINT PINKY_DIP_FE
			{
				OFFSET -0.224713 -0.036309 -0.010265
				CHANNELS 3 Yrotation Xrotation Zrotation
				End Site
				{
					OFFSET 0.000000 0.000000 0.000000
				}
			}
		}
	}
}
MOTION
Frames: 18
Frame Time: 0.008333334
2.446288 3.332501 5.398065 -162.341000 -67.356540 9.561301 -61.461180 4.834480 -63.792330 -119.352900 -30.976930 3.173877 112.864000 -65.843260 56.950330 -4.562073 -8.459839 40.436450 148.046400 2.812022 179.518200 41.978440 -86.125670 -35.181580 2.052633 1.704995 23.633600 173.033200 -1.446594 164.431900 39.241270 -88.411560 -32.271030 6.002521 4.395443 4.888607 -161.553300 -0.769104 159.097000 31.479660 -85.617740 7.558406 -0.199310 0.562929 0.589374 -158.075700 -5.285034 158.531400 48.977680 -83.530610 -5.843994 -5.539825 0.809162 55.612660 
2.446725 3.333861 5.395746 -162.198800 -66.981870 9.225592 -61.461180 4.834480 -63.921630 -119.352900 -30.976930 3.225279 112.864000 -65.843230 56.898410 -4.562073 -8.459869 40.436450 147.845700 2.804941 178.870100 41.978120 -86.125550 -35.031980 2.052629 1.705002 23.440430 173.135600 -1.436737 164.301300 39.240990 -88.411440 -32.830960 6.002508 4.395433 5.464305 -161.553300 -0.769104 158.968800 31.479690 -85.617800 6.516340 -0.199310 0.562911 0.825543 -157.928100 -5.226379 158.406500 48.977580 -83.530580 -5.653473 -5.539825 0.809176 55.191480 
2.446316 3.341306 5.393775 -162.608400 -66.688110 9.482375 -61.461180 4.834478 -64.118800 -119.352900 -30.976960 3.282383 112.864000 -65.843230 56.806940 -4.562073 -8.459839 40.436440 147.451600 2.790977 178.278200 41.978480 -86.125610 -35.524900 2.052625 1.704989 23.113460 173.344600 -1.416595 164.191500 39.241360 -88.411440 -33.587680 6.002514 4.395454 5.628401 -161.553300 -0.769074 158.998600 31.479550 -85.617800 5.415846 -0.199310 0.562948 1.196899 -157.589300 -5.091614 158.387500 48.977520 -83.530610 -6.550537 -5.539795 0.809171 54.828050 
2.444431 3.348156 5.393161 -162.879800 -66.680450 9.636940 -61.461150 4.834473 -64.256410 -119.352900 -30.976930 3.338503 112.864000 -65.843230 56.764740 -4.562073 -8.459839 40.436430 147.321100 2.786308 177.773600 41.978460 -86.125670 -35.650570 2.052629 1.705005 23.025670 173.491200 -1.402435 164.163500 39.240790 -88.411440 -34.016330 6.002533 4.395451 5.884893 -161.553300 -0.769074 159.088100 31.479390 -85.617860 4.634997 -0.199310 0.562911 0.911245 -157.305700 -4.978638 158.425400 48.977630 -83.530550 -7.250336 -5.539825 0.809164 54.113430 
2.441497 3.354578 5.394471 -162.890900 -66.562190 9.593987 -61.461150 4.834489 -64.422420 -119.352900 -30.976930 3.374488 112.863900 -65.843260 56.723600 -4.562073 -8.459808 40.436410 147.136300 2.779686 177.124800 41.978340 -86.125610 -36.271610 2.052638 1.705009 22.559590 173.796100 -1.372986 164.045000 39.240760 -88.411440 -34.447570 6.002519 4.395451 6.561945 -161.553300 -0.769104 159.175400 31.479670 -85.617800 3.255523 -0.199280 0.562922 0.844960 -156.756600 -4.759369 158.540400 48.977710 -83.530580 -7.881897 -5.539825 0.809144 53.915030 
2.436793 3.364411 5.395769 -163.120300 -66.592740 9.807808 -61.461180 4.834482 -64.513430 -119.352900 -30.976960 3.434164 112.864000 -65.843230 56.688940 -4.562073 -8.459839 40.436380 146.647300 2.762034 176.858500 41.978250 -86.125610 -36.596100 2.052630 1.704992 22.228330 173.957200 -1.357452 164.033700 39.241070 -88.411320 -34.812500 6.002514 4.395458 6.027254 -161.553300 -0.769104 159.339500 31.479580 -85.617740 2.366028 -0.199310 0.562931 0.671903 -156.734400 -4.750549 158.874500 48.977660 -83.530580 -9.164001 -5.539825 0.809182 54.126920 
2.429674 3.373529 5.397145 -163.038000 -66.611420 9.711058 -61.461180 4.834461 -64.543030 -119.352900 -30.976930 3.477859 112.864000 -65.843230 56.676320 -4.562073 -8.459869 40.436350 146.288600 2.748946 176.578100 41.978370 -86.125550 -36.421570 2.052626 1.704993 22.767850 174.298800 -1.324402 164.062300 39.241500 -88.411560 -34.947080 6.002527 4.395456 5.891254 -161.553300 -0.769074 159.447300 31.479690 -85.617860 1.790944 -0.199310 0.562933 0.468766 -156.759800 -4.760651 159.013200 48.977480 -83.530640 -10.124820 -5.539795 0.809169 54.006970 
2.420550 3.384149 5.399738 -162.903400 -66.458740 9.656983 -61.461180 4.834466 -64.641570 -119.352900 -30.976930 3.514795 112.864000 -65.843260 56.651290 -4.562073 -8.459839 40.436370 145.679200 2.726460 176.312400 41.978320 -86.125610 -36.751220 2.052633 1.704996 22.777170 174.808800 -1.274963 164.240500 39.241610 -88.411440 -35.392210 6.002522 4.395448 6.009977 -161.553300 -0.769074 159.796700 31.479610 -85.617800 0.429560 -0.199310 0.562948 1.169711 -156.769300 -4.764465 159.482000 48.977600 -83.530610 -11.204220 -5.539795 0.809181 53.661000 
2.407945 3.393302 5.402108 -162.207600 -66.353610 9.030941 -61.461180 4.834468 -64.659550 -119.352900 -30.976930 3.521530 112.864000 -65.843260 56.614960 -4.562073 -8.459839 40.436350 145.481300 2.719109 176.067100 41.978300 -86.125670 -37.114350 2.052628 1.705005 22.789130 175.119400 -1.244781 164.497900 39.240890 -88.411440 -35.753270 6.002531 4.395453 5.618893 -161.553300 -0.769104 160.106600 31.479590 -85.617740 0.046862 -0.199310 0.562917 1.121951 -156.738300 -4.752075 159.545000 48.977570 -83.530550 -11.753360 -5.539825 0.809157 53.693080 
2.392249 3.400774 5.405177 -160.869000 -65.909940 7.785884 -61.461180 4.834475 -64.709810 -119.352900 -30.976960 3.505920 112.864000 -65.843230 56.627710 -4.562073 -8.459839 40.436350 145.948200 2.736437 175.935000 41.978290 -86.125610 -36.605650 2.052629 1.704993 23.695990 175.426400 -1.214935 164.643900 39.241280 -88.411320 -36.414920 6.002517 4.395446 4.913582 -161.553300 -0.769074 160.319600 31.479500 -85.617800 -0.227570 -0.199310 0.562921 0.889826 -156.319500 -4.584473 159.380000 48.977580 -83.530580 -11.862920 -5.539795 0.809188 55.049400 
2.373833 3.405771 5.410229 -158.783000 -65.344210 5.898381 -61.461180 4.834485 -64.720030 -119.352900 -30.976960 3.502359 112.864000 -65.843200 56.606470 -4.562073 -8.459869 40.436310 146.048000 2.740115 175.625400 41.978490 -86.125550 -36.990140 2.052613 1.704978 23.993530 175.853200 -1.173401 164.701600 39.241100 -88.411320 -36.134920 6.002520 4.395456 4.514032 -161.553300 -0.769074 160.362900 31.479340 -85.617800 0.004536 -0.199310 0.562931 0.603011 -156.644600 -4.714600 159.513100 48.977680 -83.530670 -12.765870 -5.539795 0.809159 54.698940 
2.351713 3.413481 5.414329 -156.709400 -64.666260 4.109587 -61.461180 4.834470 -64.746770 -119.352900 -30.976930 3.497308 112.864000 -65.843200 56.586080 -4.562073 -8.459839 40.436300 146.630900 2.761428 175.479800 41.978280 -86.125610 -37.142270 2.052625 1.704982 23.673150 176.328100 -1.127075 164.723600 39.241240 -88.411440 -35.902860 6.002518 4.395452 4.177223 -161.553300 -0.769104 160.437000 31.479450 -85.617800 0.146442 -0.199310 0.562945 0.737753 -156.584300 -4.690491 159.643100 48.977590 -83.530640 -12.484100 -5.539795 0.809164 55.251380 
2.327577 3.417171 5.420898 -153.828400 -63.895900 1.582425 -61.461180 4.834472 -64.684020 -119.352900 -30.976960 3.406913 112.863900 -65.843230 56.600670 -4.562073 -8.459839 40.436340 147.388200 2.788710 175.216100 41.978420 -86.125610 -36.887330 2.052625 1.704999 23.680230 176.417000 -1.118408 164.564700 39.241900 -88.411440 -35.394010 6.002501 4.395434 2.876277 -161.553300 -0.769074 160.218500 31.479560 -85.617830 1.011937 -0.199310 0.562919 0.455638 -156.876400 -4.807281 159.646700 48.977600 -83.530610 -12.342830 -5.539795 0.809173 54.757420 
2.300225 3.421678 5.428668 -150.966400 -63.165100 -0.867218 -61.461180 4.834473 -64.649320 -119.352900 -30.976960 3.366097 112.864000 -65.843230 56.617270 -4.562073 -8.459839 40.436320 148.480500 2.827216 175.018900 41.978080 -86.125520 -36.609740 2.052626 1.704994 23.612620 176.642600 -1.096344 164.251100 39.240890 -88.411440 -34.529270 6.002544 4.395470 2.413594 -161.553300 -0.769074 160.107200 31.479480 -85.617740 1.885236 -0.199310 0.562912 0.389721 -157.371200 -5.004761 159.664100 48.977560 -83.530610 -12.050510 -5.539795 0.809178 53.863030 
2.269884 3.425432 5.435848 -147.840400 -62.307010 -3.580017 -61.461180 4.834473 -64.557340 -119.352900 -30.976930 3.304118 112.864000 -65.843260 56.655060 -4.562073 -8.459839 40.436340 149.305900 2.855605 174.694300 41.978450 -86.125610 -36.415680 2.052634 1.705029 24.080230 176.811400 -1.079865 163.803000 39.241260 -88.411440 -33.249850 6.002502 4.395438 1.776193 -161.553300 -0.769104 159.842500 31.479510 -85.617740 3.537850 -0.199310 0.562923 0.298810 -157.819400 -5.183167 159.557600 48.977620 -83.530580 -11.581850 -5.539825 0.809167 52.871010 
2.237081 3.428751 5.444289 -144.688100 -61.545530 -6.247314 -61.461180 4.834472 -64.523440 -119.352900 -30.976930 3.261924 112.864000 -65.843230 56.684190 -4.562073 -8.459869 40.436330 150.508200 2.895901 174.319900 41.978400 -86.125700 -35.740080 2.052633 1.705007 24.615720 176.713200 -1.089478 163.503200 39.240990 -88.411190 -32.233310 6.002520 4.395437 0.801722 -161.553300 -0.769074 159.648700 31.479570 -85.617800 5.274593 -0.199310 0.562935 -0.312805 -158.080600 -5.286987 159.427900 48.977510 -83.530640 -10.690640 -5.539795 0.809175 52.615560 
2.200972 3.432723 5.453689 -141.743100 -60.704040 -8.680176 -61.461180 4.834472 -64.446410 -119.352900 -30.976930 3.211225 112.864000 -65.843230 56.694240 -4.562073 -8.459839 40.436360 151.381900 2.924395 173.855300 41.978110 -86.125550 -35.432010 2.052620 1.704988 24.612370 176.677000 -1.093018 163.109400 39.241230 -88.411320 -31.073910 6.002511 4.395437 -0.130798 -161.553300 -0.769104 159.441400 31.479570 -85.617800 6.916778 -0.199310 0.562901 -0.805176 -158.323500 -5.383362 159.330600 48.977550 -83.530670 -9.698273 -5.539795 0.809163 51.600650 
2.161947 3.437650 5.463911 -138.846800 -59.879790 -11.055110 -61.461180 4.834470 -64.381350 -119.352900 -30.976960 3.172673 112.864000 -65.843230 56.731400 -4.562073 -8.459839 40.436340 152.054800 2.945864 173.224200 41.978130 -86.125550 -35.334840 2.052625 1.705001 24.547330 176.424400 -1.117676 162.718200 39.241170 -88.411320 -30.148380 6.002518 4.395454 -0.382599 -161.553300 -0.769104 159.208000 31.479440 -85.617740 8.566661 -0.199310 0.562921 -0.883118 -158.780600 -5.564423 159.239500 48.977540 -83.530640 -9.306488 -5.539795 0.809178 50.547720 
